<svg width="604" height="515" viewBox="0 0 604 515" fill="none" xmlns="http://www.w3.org/2000/svg">
<g clip-path="url(#clip0_332_1228)">
<path d="M311.536 432.535L329.137 427.349L324.001 445L329.137 462.601L311.536 457.465L293.885 462.601L299.07 445L293.885 427.349L311.536 432.535Z" fill="black" stroke="white" stroke-miterlimit="10"/>
</g>
<g clip-path="url(#clip1_332_1228)">
<path d="M125.484 345.509L156.96 362.659L125.484 379.947L108.266 411.354L91.0468 379.947L59.5708 362.659L91.0468 345.509L108.266 313.964L125.484 345.509Z" fill="black" stroke="white" stroke-miterlimit="10"/>
</g>
<path d="M565.117 389.333C563.218 392.777 559.679 395.268 554.584 396.813C549.486 398.359 542.874 398.943 534.913 398.6C518.992 397.913 497.791 393.524 472.776 385.868C422.756 370.558 357.594 342.216 289.155 304.465C220.715 266.715 161.982 226.717 122.349 192.575C102.53 175.501 87.5079 159.909 78.4343 146.81C73.8969 140.259 70.8635 134.355 69.4517 129.218C68.0405 124.084 68.2602 119.762 70.1597 116.319C72.0593 112.875 75.5976 110.384 80.693 108.839C85.7907 107.293 92.4028 106.709 100.364 107.052C116.285 107.739 137.486 112.128 162.501 119.784C212.521 135.094 277.683 163.436 346.122 201.187C414.562 238.937 473.295 278.934 512.928 313.077C532.747 330.15 547.769 345.742 556.843 358.842C561.38 365.393 564.414 371.297 565.825 376.434C567.237 381.568 567.017 385.889 565.117 389.333Z" stroke="white"/>
<path d="M544.887 426.007C542.987 429.451 539.449 431.942 534.354 433.487C529.256 435.033 522.644 435.617 514.683 435.273C498.762 434.587 477.56 430.198 452.546 422.542C402.526 407.232 337.364 378.89 268.924 341.139C200.485 303.388 141.752 263.391 102.119 229.249C82.2995 212.175 67.2774 196.583 58.2038 183.483C53.6664 176.933 50.6331 171.029 49.2212 165.892C47.81 160.758 48.0297 156.436 49.9293 152.992C51.8289 149.549 55.3672 147.057 60.4625 145.512C65.5603 143.967 72.1723 143.383 80.1336 143.726C96.0541 144.413 117.256 148.802 142.27 156.458C192.291 171.767 257.452 200.11 325.892 237.86C394.331 275.611 453.064 315.608 492.697 349.75C512.517 366.824 527.539 382.416 536.612 395.516C541.15 402.067 544.183 407.971 545.595 413.107C547.006 418.241 546.786 422.563 544.887 426.007Z" stroke="white"/>
<path d="M524.658 462.681C522.759 466.125 519.22 468.616 514.125 470.161C509.027 471.707 502.415 472.291 494.454 471.948C478.533 471.261 457.332 466.872 432.317 459.216C382.297 443.906 317.135 415.564 248.696 377.813C180.256 340.063 121.523 300.066 81.8905 265.923C62.071 248.85 47.0489 233.258 37.9753 220.158C33.4379 213.607 30.4045 207.703 28.9927 202.566C27.5815 197.432 27.8012 193.111 29.7008 189.667C31.6003 186.223 35.1386 183.732 40.234 182.187C45.3318 180.641 51.9438 180.057 59.9051 180.4C75.8256 181.087 97.0273 185.476 122.042 193.132C172.062 208.442 237.224 236.784 305.663 274.535C374.103 312.285 432.836 352.283 472.469 386.425C492.288 403.499 507.31 419.091 516.384 432.19C520.921 438.741 523.955 444.645 525.366 449.782C526.778 454.916 526.558 459.237 524.658 462.681Z" stroke="white"/>
<circle cx="401.537" cy="310" r="10" fill="#F37B20"/>
<circle cx="244" cy="69" r="10" fill="#F37B20"/>
<path d="M306.509 383.59C300.205 385.744 293.001 381.475 290.495 374.071L251.496 259.81L274.284 252.015L313.322 366.433C315.828 373.758 312.774 381.436 306.509 383.59Z" fill="white"/>
<path d="M303.102 385C301.262 385 299.383 384.569 297.581 383.668C293.94 381.866 291.042 378.498 289.633 374.345L250.634 260.084C250.478 259.653 250.713 259.144 251.182 258.987L273.971 251.192C274.206 251.113 274.441 251.113 274.636 251.231C274.832 251.348 274.989 251.505 275.067 251.74L314.105 366.159C316.728 373.914 313.439 382.101 306.744 384.412C305.608 384.804 304.355 385 303.102 385ZM252.592 260.358L291.317 373.797C292.57 377.518 295.154 380.574 298.364 382.14C300.949 383.394 303.729 383.629 306.235 382.767C312.03 380.769 314.849 373.562 312.5 366.707L273.736 253.111L252.592 260.358Z" fill="white"/>
<path d="M270.251 153.382L196.521 205.988L167.821 235.798L156.544 255.736L156.505 255.892C154.273 259.339 155.565 267.291 159.755 275.399C163.866 283.39 169.661 288.953 173.733 289.266L173.616 289.344L195.268 291.695L235.794 285.231L321.818 254.443L428.751 272.775L429.495 272.814C402.635 267.8 366.377 231.88 340.025 181.076C313.713 130.31 305.334 80.132 316.885 55.376H316.845L270.838 152.128L270.251 153.382Z" fill="#F37B20"/>
<path d="M447.266 270.603C473.694 256.873 468.583 194.629 435.852 131.577C403.121 68.5247 355.163 28.5412 328.736 42.2711C302.308 56.001 307.419 118.245 340.15 181.297C372.881 244.349 420.839 284.333 447.266 270.603Z" fill="white"/>
<path d="M435.643 274.185C424.131 274.185 410.27 267.761 395.352 255.266C375.031 238.266 355.101 212.06 339.243 181.428C315.241 135.05 305.334 87.4964 314.027 60.2726C316.924 51.1849 321.78 44.8392 328.397 41.4313C341.553 34.6939 360.073 40.4129 380.591 57.5698C400.912 74.57 420.842 100.775 436.7 131.407C460.742 177.786 470.648 225.339 461.916 252.563C459.019 261.651 454.163 267.996 447.546 271.404C443.983 273.284 439.989 274.185 435.643 274.185ZM340.378 40.4129C336.345 40.4129 332.586 41.2355 329.219 42.9982C322.993 46.171 318.451 52.2033 315.711 60.8601C307.136 87.6922 317.003 134.737 340.809 180.723C373.23 243.279 420.764 283.312 446.802 269.955C453.028 266.782 457.57 260.75 460.311 252.093C468.886 225.261 459.019 178.216 435.212 132.23C406.981 77.782 367.356 40.4129 340.378 40.4129Z" fill="black"/>
<path d="M435.643 274.185C424.131 274.185 410.27 267.761 395.352 255.266C375.031 238.265 355.101 212.06 339.243 181.428C315.241 135.05 305.334 87.4963 314.027 60.2725C316.924 51.1848 321.78 44.8391 328.397 41.4312C337.207 36.8874 348.718 38.0234 361.679 44.6824C374.091 51.0673 387.521 62.3877 400.599 77.3902C400.912 77.7427 400.873 78.2911 400.521 78.6045C400.168 78.9179 399.62 78.8787 399.307 78.5262C372.76 48.0511 345.899 34.4196 329.219 42.9981C322.993 46.1709 318.451 52.2033 315.711 60.86C307.136 87.6922 317.003 134.737 340.809 180.723C369.001 235.132 408.665 272.54 435.604 272.54C439.637 272.54 443.396 271.717 446.763 269.955C452.989 266.782 457.531 260.75 460.272 252.093C468.847 225.261 458.98 178.216 435.173 132.23C428.086 118.52 420.098 105.632 411.523 93.9204C411.249 93.5286 411.328 92.9803 411.719 92.7061C412.111 92.4319 412.659 92.5102 412.933 92.9019C421.586 104.692 429.574 117.658 436.739 131.446C460.742 177.785 470.648 225.339 461.916 252.563C459.019 261.65 454.163 267.996 447.546 271.404C443.983 273.284 439.989 274.185 435.643 274.185Z" fill="black"/>
<path d="M387.303 190.339C393.426 187.158 392.248 172.751 384.673 158.159C377.098 143.567 365.995 134.316 359.872 137.497C353.75 140.678 354.928 155.085 362.503 169.677C370.077 184.269 381.181 193.52 387.303 190.339Z" fill="#F37B20"/>
<path d="M384.624 191.848C377.889 191.848 368.492 183.152 361.718 170.03C356.08 159.14 353.77 147.937 355.845 141.474C356.589 139.202 357.803 137.596 359.486 136.734C366.143 133.326 377.537 142.61 385.446 157.847C391.085 168.737 393.395 179.94 391.32 186.403C390.576 188.675 389.362 190.281 387.678 191.143C386.738 191.613 385.72 191.848 384.624 191.848ZM362.54 137.714C361.718 137.714 360.935 137.87 360.269 138.223C358.977 138.889 358.038 140.142 357.45 141.983C355.532 148.016 357.764 158.748 363.206 169.246C370.411 183.152 381.257 192.514 386.856 189.615C388.148 188.949 389.088 187.696 389.675 185.855C391.594 179.783 389.323 169.09 383.919 158.592C377.576 146.41 368.492 137.714 362.54 137.714Z" fill="#F37B20"/>
<path d="M429.692 259.574C419.59 259.574 407.452 253.934 394.374 243.005C376.597 228.12 359.134 205.166 345.273 178.373C324.247 137.792 315.593 96.153 323.19 72.2978C325.735 64.307 330.003 58.7447 335.837 55.7285C349.228 48.8736 368.923 56.7861 389.91 77.4292C390.262 77.7818 390.262 78.291 389.91 78.6435C389.558 78.9961 389.049 78.9961 388.696 78.6435C368.257 58.5488 349.267 50.7146 336.62 57.2562C331.216 60.0373 327.262 65.2471 324.834 72.8071C317.355 96.2313 325.97 137.361 346.8 177.589C371.429 225.182 406.081 257.851 429.653 257.851C433.177 257.851 436.426 257.107 439.402 255.618C444.806 252.837 448.76 247.627 451.188 240.067C458.667 216.643 450.052 175.513 429.222 135.285C422.918 123.142 415.87 111.743 408.274 101.441C408 101.049 408.078 100.501 408.47 100.227C408.861 99.9526 409.409 100.031 409.683 100.423C417.358 110.842 424.445 122.28 430.788 134.501C451.814 175.082 460.468 216.721 452.872 240.576C450.327 248.567 446.059 254.13 440.224 257.146C437.014 258.752 433.49 259.574 429.692 259.574Z" fill="black"/>
<path d="M195.308 292.517C195.269 292.517 195.23 292.517 195.23 292.517L173.577 290.167C173.46 290.167 173.342 290.128 173.225 290.05C168.761 289.344 163.123 283.704 159.011 275.791C154.626 267.448 153.334 259.3 155.722 255.462L155.762 255.344L167.038 235.367C167.077 235.289 167.117 235.249 167.156 235.21L195.857 205.401C195.896 205.362 195.935 205.323 195.974 205.284L269.508 152.794L316.024 54.9845C316.141 54.7886 316.298 54.632 316.533 54.5536C316.768 54.4753 317.003 54.4753 317.199 54.5928C317.629 54.7886 317.825 55.2979 317.629 55.7288C305.844 80.994 315.163 131.211 340.77 180.645C366.417 230.157 402.165 266.821 429.692 271.874C430.122 271.953 430.436 272.344 430.396 272.814C430.357 273.245 429.966 273.559 429.535 273.598L428.791 273.559C428.752 273.559 428.713 273.559 428.674 273.559L321.936 255.266L236.108 285.976C236.069 285.976 235.991 286.015 235.951 286.015L195.426 292.478C195.387 292.517 195.348 292.517 195.308 292.517ZM174.204 288.522L195.308 290.794L235.638 284.331L321.623 253.581C321.78 253.542 321.897 253.503 322.054 253.542L418.141 269.994C392.181 258.595 361.836 224.947 339.321 181.468C316.964 138.301 306.979 94.4689 312.461 66.775L271.035 153.735C270.956 153.852 270.878 153.97 270.761 154.048L197.11 206.655L168.526 236.307L157.249 256.284C157.249 256.323 157.21 256.363 157.21 256.363C155.174 259.535 156.545 267.37 160.499 275.008C164.376 282.49 169.975 288.13 173.812 288.404C173.969 288.404 174.086 288.444 174.204 288.522Z" fill="black"/>
<path d="M270.367 153.069L316.845 55.3369H316.884C305.333 80.093 313.751 130.271 340.025 181.037C366.376 231.881 402.634 267.8 429.573 272.736L428.829 272.697L322.052 254.404L319.586 253.973C307.173 251.779 290.611 235.641 278.747 212.608C266.569 188.988 264.416 165.447 269.819 154.244L270.367 153.069Z" fill="white"/>
<path d="M429.573 273.598C429.534 273.598 429.573 273.598 429.573 273.598L428.79 273.558C428.751 273.558 428.711 273.558 428.672 273.558L321.896 255.266L319.429 254.835C306.312 252.524 289.671 235.719 277.964 213.039C264.69 187.265 264.025 164.311 269.036 153.891L269.624 152.716L316.101 55.0236C316.218 54.8277 316.375 54.671 316.61 54.5927C316.845 54.5143 317.08 54.5143 317.276 54.6319C317.706 54.8277 317.902 55.3369 317.706 55.7678C305.921 81.0331 315.24 131.25 340.847 180.684C366.494 230.196 402.243 266.86 429.769 271.913C430.199 271.992 430.513 272.383 430.473 272.853C430.356 273.245 430.004 273.598 429.573 273.598ZM312.381 66.7749L271.151 153.46L270.563 154.635C265.591 164.977 267.04 188.087 279.491 212.217C290.963 234.466 307.134 250.918 319.742 253.111L322.209 253.542L418.1 269.994C392.14 258.595 361.795 224.947 339.281 181.467C316.923 138.301 306.939 94.4687 312.381 66.7749Z" fill="black"/>
<path d="M194.133 292.4C194.094 292.4 194.055 292.4 194.055 292.4L173.538 290.206C173.42 290.206 173.303 290.167 173.185 290.089C168.721 289.384 163.083 283.743 158.972 275.831C154.626 267.448 153.333 259.3 155.722 255.462L155.761 255.344L167.038 235.367C167.273 234.936 167.782 234.819 168.212 235.054C168.643 235.289 168.761 235.798 168.526 236.229L157.249 256.284C157.249 256.323 157.21 256.363 157.21 256.363C155.174 259.535 156.544 267.37 160.499 275.008C164.375 282.49 169.974 288.13 173.812 288.404C173.929 288.404 174.086 288.444 174.164 288.522L194.212 290.676C194.681 290.716 195.034 291.146 194.955 291.616C194.916 292.047 194.564 292.4 194.133 292.4Z" fill="black"/>
<path d="M195.503 291.538C188.847 291.068 179.528 281.628 172.754 268.584C165.589 254.756 163.905 240.459 168.29 235.367L156.583 255.736L156.505 255.892C154.273 259.339 155.565 267.291 159.755 275.399C163.866 283.39 169.661 288.953 173.733 289.266L173.616 289.344L195.503 291.538Z" fill="white"/>
<path d="M195.504 292.4C195.464 292.4 195.464 292.4 195.425 292.4C195.269 292.4 195.073 292.36 194.916 292.36L173.538 290.206C173.42 290.206 173.303 290.167 173.185 290.088C168.721 289.383 163.083 283.743 158.972 275.83C154.626 267.448 153.333 259.3 155.722 255.461L155.761 255.344L166.059 237.404C166.45 236.385 166.959 235.484 167.586 234.74C167.86 234.387 168.369 234.348 168.721 234.583C169.074 234.857 169.191 235.327 168.956 235.719L167.508 238.187C165.197 244.415 167.468 256.636 173.42 268.074C179.881 280.57 188.691 289.697 194.995 290.519L195.464 290.559C195.934 290.598 196.287 291.029 196.248 291.499C196.287 292.047 195.934 292.4 195.504 292.4ZM174.164 288.522L189.121 290.049C183.366 286.367 177.022 278.768 171.971 268.975C167.077 259.535 164.649 249.742 165.041 242.692L157.249 256.284C157.249 256.323 157.21 256.362 157.21 256.362C155.174 259.535 156.544 267.369 160.499 275.008C164.375 282.489 169.974 288.13 173.812 288.404C173.929 288.404 174.086 288.443 174.164 288.522Z" fill="black"/>
<path d="M234.345 285.388L236.068 285.035C226.749 286.994 212.026 272.892 201.65 252.876C191.039 232.429 189.042 212.021 196.56 205.988L195.581 206.968L168.368 235.249C163.905 240.263 165.549 254.639 172.754 268.544C179.684 281.941 189.512 291.499 196.208 291.459L234.345 285.388Z" fill="white"/>
<path d="M196.169 292.36C189.043 292.36 179.137 282.764 171.971 268.975C164.689 254.874 162.848 240.146 167.704 234.701L194.407 206.968C194.877 206.341 195.425 205.793 196.013 205.323C196.365 205.048 196.874 205.088 197.187 205.401C197.501 205.753 197.501 206.263 197.187 206.576L195.66 208.182C190.218 215.468 192.92 234.113 202.434 252.484C212.693 272.305 227.024 285.897 235.795 284.252L235.912 284.213C236.382 284.135 236.813 284.409 236.93 284.879C237.008 285.349 236.734 285.78 236.264 285.897C236.225 285.897 236.186 285.897 236.147 285.936L234.542 286.25H234.502L196.365 292.321C196.287 292.321 196.209 292.36 196.169 292.36ZM192.136 211.825L168.996 235.876C164.689 240.733 166.646 254.913 173.538 268.192C180.272 281.197 189.787 290.598 196.169 290.637L229.843 285.27C220.759 282.058 209.561 269.955 200.907 253.307C192.685 237.443 189.513 221.304 192.136 211.825Z" fill="black"/>
<path d="M359.878 137.479C353.731 140.612 354.631 155.145 362.462 169.638C375.579 193.885 386.034 191.025 387.248 190.594C387.287 190.594 387.287 190.634 387.248 190.634L364.733 208.77C358.116 199.486 351.812 189.145 346.017 177.981C340.496 167.288 335.837 156.633 332.156 146.292L359.878 137.479Z" fill="black"/>
<path d="M364.733 209.631C364.694 209.631 364.655 209.631 364.616 209.631C364.381 209.592 364.185 209.475 364.028 209.279C357.255 199.76 350.951 189.341 345.273 178.412C339.83 167.914 335.132 157.221 331.373 146.645C331.295 146.41 331.295 146.174 331.412 145.979C331.53 145.783 331.686 145.626 331.921 145.548L359.643 136.734C360.074 136.617 360.544 136.813 360.7 137.243C360.857 137.674 360.7 138.144 360.309 138.34C358.977 139.006 357.998 140.338 357.411 142.297C355.493 148.446 357.842 159.336 363.284 169.325C376.088 192.984 385.955 190.281 387.013 189.889C387.404 189.733 387.874 189.928 388.07 190.281C388.266 190.634 388.187 191.143 387.874 191.417L365.281 209.436C365.125 209.553 364.929 209.631 364.733 209.631ZM333.292 146.84C337.011 157.064 341.553 167.405 346.8 177.59C352.282 188.166 358.39 198.233 364.929 207.516L384.467 191.77C380.004 191.574 371.585 188.244 361.718 170.03C356.002 159.493 353.652 148.368 355.727 141.67C356.002 140.808 356.315 140.064 356.706 139.359L333.292 146.84Z" fill="black"/>
<path d="M473.039 78.3671C490.215 69.3356 496.858 48.1319 487.877 31.0071C478.896 13.8823 457.692 7.32131 440.517 16.3527C423.341 25.3842 416.698 46.5879 425.679 63.7127C434.66 80.8375 455.864 87.3985 473.039 78.3671Z" fill="white"/>
<path d="M440.783 39.603C442.437 37.3457 444.879 35.9538 447.659 35.6528C449.763 35.4271 451.716 35.8786 453.557 37.0072C454.497 37.5715 455.323 38.2863 456.112 39.1515C456.676 38.1358 457.352 37.2329 458.141 36.4805C459.681 34.9757 461.522 34.1104 463.588 33.8847C466.369 33.5837 469.074 34.4114 471.178 36.2548C473.244 38.0605 474.559 40.694 474.897 43.666C475.235 46.7132 474.409 49.6476 472.305 52.8829C470.426 55.7797 467.571 58.7893 464.265 62.3256C463.138 63.5295 461.86 64.8838 460.545 66.3134C460.207 66.6896 459.719 66.9529 459.193 66.9905C458.667 67.0658 458.178 66.9153 457.728 66.6143C456.112 65.4857 454.572 64.4323 453.219 63.5295C449.237 60.8208 445.78 58.4883 443.301 56.0806C440.52 53.4096 439.093 50.7009 438.755 47.6537C438.454 44.6817 439.168 41.8226 440.783 39.603Z" fill="black"/>
<path d="M580.272 116.592C593.377 103.483 593.377 82.2281 580.272 69.1185C567.168 56.0089 545.922 56.0089 532.817 69.1185C519.713 82.228 519.713 103.483 532.817 116.592C545.922 129.702 567.168 129.702 580.272 116.592Z" fill="#F37B20"/>
<path d="M556.539 127.273C537.587 127.273 522.121 111.84 522.121 92.8419C522.121 73.8832 537.548 58.4106 556.539 58.4106C575.529 58.4106 590.956 73.844 590.956 92.8419C590.956 111.801 575.529 127.273 556.539 127.273ZM556.539 60.1342C538.527 60.1342 523.844 74.7841 523.844 92.8419C523.844 110.861 538.488 125.55 556.539 125.55C574.55 125.55 589.233 110.9 589.233 92.8419C589.233 74.8233 574.589 60.1342 556.539 60.1342Z" fill="#F37B20"/>
<path d="M565.622 96.1713C563.743 96.1713 562.098 97.0723 561.002 98.4824L549.686 94.0561C549.686 93.8994 549.725 93.7819 549.725 93.6252C549.725 93.351 549.686 93.0768 549.647 92.8026L561.237 87.4362C562.294 88.6505 563.86 89.4339 565.622 89.4731C568.833 89.4731 571.495 86.8486 571.495 83.5974C571.495 80.3462 568.872 77.6826 565.622 77.6826C562.411 77.6826 559.749 80.3071 559.749 83.5583C559.749 83.8325 559.788 84.1067 559.827 84.3809L548.237 89.7473C547.18 88.533 545.614 87.7496 543.852 87.7104C540.641 87.7104 537.979 90.3348 537.979 93.586C537.979 96.8372 540.602 99.5009 543.852 99.5009C545.731 99.5009 547.376 98.5999 548.472 97.1898L559.788 101.616C559.788 101.773 559.749 101.89 559.749 102.047C559.749 105.298 562.372 107.962 565.622 107.962C568.833 107.962 571.495 105.337 571.495 102.086C571.456 98.8349 568.833 96.2105 565.622 96.1713Z" fill="black"/>
<path d="M550.067 224.993C565.433 214.322 569.294 193.283 558.69 177.999C548.085 162.715 527.032 158.975 511.665 169.645C496.299 180.315 492.438 201.355 503.042 216.639C513.647 231.923 534.7 235.663 550.067 224.993Z" fill="white"/>
<path d="M522.411 213.373L517.478 186.619C517.243 185.248 518.496 184.112 519.827 184.465L548.998 192.73C550.486 193.161 550.838 195.08 549.624 196.02L525.348 214.509C524.291 215.371 522.685 214.783 522.411 213.373Z" fill="black"/>
<defs>
<clipPath id="clip0_332_1228">
<rect width="36" height="36" fill="white" transform="translate(293.537 427)"/>
</clipPath>
<clipPath id="clip1_332_1228">
<rect width="70.3259" height="70.3259" fill="white" transform="translate(108.266 313) rotate(45)"/>
</clipPath>
</defs>
</svg>
